<?xml version="1.0" standalone="no"?>
<!DOCTYPE svg PUBLIC "-//W3C//DTD SVG 20010904//EN"
 "http://www.w3.org/TR/2001/REC-SVG-20010904/DTD/svg10.dtd">
<svg version="1.0" xmlns="http://www.w3.org/2000/svg"
 width="75.000000pt" height="50.000000pt" viewBox="0 0 694.000000 419.000000"
 preserveAspectRatio="xMidYMid meet">
<metadata>
Created by potrace 1.11, written by Peter Selinger 2001-2013
</metadata>
<g transform="translate(0.000000,419.000000) scale(0.100000,-0.100000)"
fill="#000000" stroke="none">
<path d="M0 2095 l0 -2095 3470 0 3470 0 0 2095 0 2095 -3470 0 -3470 0 0
-2095z m3340 1135 l0 -220 -282 -2 -283 -3 -3 -437 -2 -438 -250 0 -250 0 0
440 0 440 -82 0 c-46 0 -181 -3 -301 -7 l-217 -6 17 -26 c9 -14 47 -64 84
-111 171 -218 201 -282 180 -397 -24 -127 -102 -238 -204 -290 -76 -38 -167
-43 -834 -43 l-613 0 0 240 0 240 520 0 c286 0 520 3 520 8 0 4 -41 54 -91
112 -121 139 -156 193 -170 262 -29 142 57 328 185 403 93 55 72 54 1114 54
l962 1 0 -220z m1082 -280 c92 -267 194 -563 227 -657 l60 -173 -248 0 -249 0
-29 88 -28 87 -232 3 -232 2 -26 -85 -26 -85 -250 0 c-137 0 -249 3 -249 8 0
4 100 298 222 654 l223 648 334 -3 335 -2 168 -485z m1368 480 c102 -13 182
-54 254 -129 31 -33 69 -86 84 -118 24 -52 27 -69 27 -168 0 -99 -3 -116 -27
-168 -36 -76 -77 -127 -139 -173 -85 -62 -77 -64 307 -64 l334 0 0 -67 c0 -38
3 -146 7 -241 l6 -174 -444 4 c-503 3 -459 -4 -579 93 -36 29 -109 93 -163
144 -54 50 -99 91 -100 91 -1 0 -1 -74 1 -165 l3 -165 -265 0 -266 0 0 655 0
655 443 0 c243 0 476 -5 517 -10z m-2605 -1370 c6 -10 455 -1298 455 -1306 0
-2 -112 -4 -249 -4 l-248 0 -23 78 c-12 42 -25 80 -29 84 -3 4 -109 8 -236 9
l-230 3 -29 -88 -29 -89 -239 5 c-131 3 -241 8 -244 11 -4 4 383 1142 437
1285 l9 22 324 0 c209 0 327 -4 331 -10z m-2310 -172 c33 -93 62 -168 65 -168
3 0 32 77 65 170 l60 170 240 -2 240 -3 59 -175 c69 -202 54 -205 133 28 l48
142 249 0 c194 0 247 -3 244 -12 -3 -7 -103 -302 -224 -655 l-219 -643 -172 0
-171 0 -16 42 c-9 24 -51 147 -95 273 -68 199 -80 227 -89 205 -5 -14 -49
-134 -97 -268 l-89 -242 -170 0 -171 0 -62 183 c-33 100 -133 395 -222 655
l-160 472 247 -2 247 -3 60 -167z m5755 -58 l0 -230 -310 -2 -309 -3 109 -138
c161 -202 165 -211 165 -332 0 -94 -2 -104 -33 -164 -39 -74 -112 -150 -175
-180 -76 -37 -182 -42 -788 -39 l-574 3 -50 27 c-56 30 -118 81 -264 217
l-101 93 0 -171 0 -171 -260 0 -260 0 0 656 0 655 478 -3 c466 -4 478 -4 537
-26 188 -70 325 -262 313 -434 -8 -99 -41 -172 -112 -243 -34 -34 -72 -69 -85
-78 -13 -8 -20 -20 -16 -26 7 -13 775 -16 775 -3 0 4 -37 48 -81 97 -153 169
-185 237 -177 377 4 64 11 95 32 136 34 66 87 126 140 157 87 51 117 54 599
54 l447 1 0 -230z"/>
<path d="M1383 3360 c-46 -11 -117 -55 -149 -92 -41 -50 -75 -132 -81 -198 -7
-77 21 -135 118 -245 165 -186 176 -210 120 -266 l-29 -29 -491 0 -491 0 0
-161 0 -160 638 3 637 3 47 23 c121 60 204 227 168 337 -7 21 -69 112 -138
204 -68 91 -129 176 -135 188 -12 27 -2 68 23 93 19 19 35 20 375 20 l355 0 0
-435 0 -435 170 0 170 0 0 435 0 435 288 2 287 3 3 143 3 142 -928 -1 c-511
-1 -942 -4 -960 -9z"/>
<path d="M3622 3303 c-10 -32 -99 -288 -196 -569 -97 -281 -176 -514 -176
-518 0 -3 75 -5 166 -4 l166 3 26 83 25 82 196 0 c108 0 239 -3 292 -6 l97 -7
25 -81 25 -81 165 -3 166 -2 -38 107 c-21 60 -111 321 -201 581 l-163 472
-278 0 -277 0 -20 -57z m403 -385 c49 -145 90 -269 93 -275 3 -10 -40 -13
-193 -13 -153 0 -196 3 -193 13 105 298 193 537 199 537 4 0 46 -118 94 -262z"/>
<path d="M3882 2831 c-23 -66 -42 -122 -42 -125 0 -3 38 -6 85 -6 59 0 85 4
85 12 0 14 -71 220 -79 230 -4 4 -25 -46 -49 -111z"/>
<path d="M4910 2786 l0 -576 185 0 185 0 2 214 3 213 170 -159 c199 -187 280
-250 332 -260 21 -4 203 -7 406 -7 l367 -1 0 83 c0 46 -3 118 -6 159 l-7 76
-307 4 -307 4 -41 33 c-23 18 -51 45 -62 61 l-20 28 71 42 c85 50 139 104 171
168 31 63 33 226 4 285 -33 66 -103 134 -174 169 l-67 33 -452 3 -453 3 0
-575z m765 322 c52 -28 68 -54 73 -117 4 -56 2 -61 -30 -97 -43 -46 -78 -52
-300 -53 l-148 -1 0 146 0 146 188 -4 c149 -3 193 -7 217 -20z"/>
<path d="M5350 2985 l0 -65 133 0 c157 0 181 8 185 62 5 57 -26 68 -188 68
l-130 0 0 -65z"/>
<path d="M2386 1418 c-108 -315 -196 -576 -196 -580 0 -5 72 -8 160 -8 120 0
162 3 165 13 2 6 14 45 25 85 l22 72 294 0 293 0 26 -85 26 -85 165 0 c90 0
164 1 164 3 0 4 -350 1011 -382 1100 l-21 57 -272 0 -272 0 -197 -572z m574
117 c49 -148 88 -270 86 -272 -2 -2 -88 -2 -193 -1 l-189 3 100 272 c55 150
101 271 103 269 2 -2 44 -124 93 -271z"/>
<path d="M2856 1560 c-22 -55 -76 -206 -76 -212 0 -5 36 -8 81 -8 73 0 80 2
75 18 -41 129 -75 214 -80 202z"/>
<path d="M586 1523 c86 -252 174 -511 196 -576 l40 -118 116 3 115 3 123 335
c68 184 124 339 126 343 2 4 57 -150 123 -343 l120 -350 118 0 c64 0 117 2
117 4 0 2 88 259 195 571 107 312 195 569 195 571 0 2 -74 4 -164 4 l-163 0
-78 -222 c-43 -123 -83 -234 -90 -247 -11 -22 -15 -14 -57 100 -25 68 -64 181
-87 252 l-43 127 -185 -2 -185 -3 -88 -249 c-48 -137 -90 -244 -94 -238 -4 6
-41 107 -82 224 -42 117 -81 225 -86 241 l-10 27 -164 0 -163 0 155 -457z"/>
<path d="M5682 1961 c-67 -23 -119 -65 -157 -126 -26 -41 -30 -60 -33 -130 -5
-113 15 -156 139 -298 123 -141 137 -164 120 -206 -10 -22 -23 -33 -50 -41
-47 -13 -764 -13 -811 0 -36 10 -120 85 -120 107 0 7 23 25 52 39 78 40 160
127 187 199 60 158 -29 339 -208 428 l-66 32 -437 3 -438 3 0 -576 0 -575 180
0 180 0 2 221 3 220 193 -180 c106 -99 218 -197 249 -218 l55 -38 627 0 c720
0 681 -5 771 90 67 71 91 128 91 210 0 81 -14 109 -131 255 -130 163 -150 193
-150 233 0 67 2 67 328 67 l292 0 0 150 0 150 -407 0 c-369 -1 -413 -2 -461
-19z m-1108 -230 c50 -6 64 -13 92 -44 30 -32 34 -43 34 -91 0 -60 -21 -95
-73 -123 -39 -20 -196 -29 -321 -18 l-86 7 0 139 0 139 148 -1 c81 0 174 -4
206 -8z"/>
<path d="M4300 1595 l0 -67 146 4 c139 3 147 4 165 27 24 29 24 43 0 72 -18
23 -26 24 -165 27 l-146 3 0 -66z"/>
</g>
</svg>
